<svg width="193" height="189" viewBox="0 0 193 189" fill="none" xmlns="http://www.w3.org/2000/svg">
<rect x="1" y="153" width="190" height="2" fill="#B38934"/>
<path d="M43.974 171.31C45.654 171.31 46.848 171.292 47.556 171.256C47.256 172.108 47.01 172.876 46.818 173.56C46.698 174.004 46.584 174.496 46.476 175.036H46.062C46.194 174.268 46.26 173.668 46.26 173.236C46.26 172.66 46.11 172.258 45.81 172.03C45.51 171.79 44.97 171.67 44.19 171.67H43.236C42.804 171.67 42.48 171.706 42.264 171.778C42.06 171.838 41.892 171.97 41.76 172.174C41.628 172.378 41.502 172.708 41.382 173.164L40.194 177.592H41.508C42.12 177.592 42.576 177.412 42.876 177.052C43.176 176.68 43.392 176.308 43.524 175.936C43.668 175.564 43.764 175.324 43.812 175.216H44.226C43.974 176.008 43.764 176.722 43.596 177.358L43.488 177.772C43.296 178.564 43.104 179.416 42.912 180.328H42.498L42.552 179.932C42.612 179.608 42.642 179.326 42.642 179.086C42.642 178.726 42.552 178.45 42.372 178.258C42.192 178.054 41.874 177.952 41.418 177.952H40.104L38.988 182.092C38.892 182.452 38.844 182.716 38.844 182.884C38.844 183.172 38.952 183.364 39.168 183.46C39.396 183.556 39.804 183.616 40.392 183.64L40.302 184C39.678 183.964 38.796 183.946 37.656 183.946C36.636 183.946 35.874 183.964 35.37 184L35.46 183.64C35.892 183.616 36.21 183.568 36.414 183.496C36.63 183.424 36.804 183.286 36.936 183.082C37.068 182.878 37.194 182.548 37.314 182.092L39.708 173.164C39.816 172.78 39.87 172.486 39.87 172.282C39.87 172.03 39.78 171.862 39.6 171.778C39.432 171.694 39.12 171.64 38.664 171.616L38.754 171.256C39.93 171.292 41.67 171.31 43.974 171.31ZM53.3053 174.496C53.6293 174.496 53.8873 174.592 54.0793 174.784C54.2713 174.976 54.3673 175.222 54.3673 175.522C54.3673 175.882 54.2413 176.188 53.9893 176.44C53.7373 176.692 53.4433 176.818 53.1073 176.818C52.8913 176.818 52.7173 176.764 52.5853 176.656C52.4533 176.536 52.3873 176.374 52.3873 176.17C52.3873 175.894 52.4593 175.66 52.6033 175.468C52.7473 175.276 52.9453 175.126 53.1973 175.018C53.1493 174.97 53.0833 174.946 52.9993 174.946C52.3513 174.946 51.6433 175.648 50.8753 177.052C50.1193 178.444 49.4053 180.286 48.7333 182.578L48.3733 184H46.8073L48.9673 176.278C49.0513 176.014 49.0933 175.78 49.0933 175.576C49.0933 175.3 48.9673 175.162 48.7153 175.162C48.4513 175.162 48.2053 175.306 47.9773 175.594C47.7613 175.87 47.5393 176.338 47.3113 176.998L47.0773 177.664H46.7353L47.1853 176.35C47.6173 175.114 48.3433 174.496 49.3633 174.496C50.0473 174.496 50.3893 174.844 50.3893 175.54C50.3893 175.876 50.3053 176.368 50.1373 177.016L49.5613 179.284C50.2093 177.544 50.8153 176.314 51.3793 175.594C51.9553 174.862 52.5973 174.496 53.3053 174.496ZM60.9958 175.684C60.9958 176.656 60.4498 177.508 59.3578 178.24C58.2658 178.972 57.0178 179.566 55.6138 180.022C55.4818 180.622 55.4158 181.204 55.4158 181.768C55.4158 182.92 55.8298 183.496 56.6578 183.496C57.6898 183.496 58.6138 182.896 59.4298 181.696L59.7178 181.84C59.3338 182.5 58.8118 183.07 58.1518 183.55C57.5038 184.018 56.8198 184.252 56.0998 184.252C55.3558 184.252 54.7738 184.036 54.3538 183.604C53.9338 183.172 53.7238 182.542 53.7238 181.714C53.7238 180.802 53.9878 179.776 54.5158 178.636C55.0558 177.484 55.7818 176.506 56.6938 175.702C57.6058 174.898 58.5958 174.496 59.6638 174.496C60.0478 174.496 60.3658 174.598 60.6178 174.802C60.8698 175.006 60.9958 175.3 60.9958 175.684ZM59.2678 174.838C58.8838 174.838 58.4518 175.066 57.9718 175.522C57.5038 175.966 57.0598 176.56 56.6398 177.304C56.2318 178.048 55.9198 178.84 55.7038 179.68C56.8438 179.284 57.6598 178.9 58.1518 178.528C58.5958 178.18 58.9378 177.76 59.1778 177.268C59.4298 176.764 59.5558 176.224 59.5558 175.648C59.5558 175.324 59.5318 175.108 59.4838 175C59.4358 174.892 59.3638 174.838 59.2678 174.838ZM70.7646 181.084L70.3146 182.398C69.8826 183.634 69.1566 184.252 68.1366 184.252C67.5966 184.252 67.2186 184.078 67.0026 183.73C66.9066 183.586 66.8586 183.388 66.8586 183.136C66.8586 182.812 66.9606 182.344 67.1646 181.732L68.8746 176.584C68.9946 176.188 69.0546 175.894 69.0546 175.702C69.0546 175.282 68.8626 175.072 68.4786 175.072C68.0226 175.072 67.5006 175.408 66.9126 176.08C66.3366 176.74 65.7666 177.652 65.2026 178.816C64.6386 179.98 64.1526 181.27 63.7446 182.686L63.4206 184H61.8546L64.0146 176.278C64.0986 175.966 64.1406 175.744 64.1406 175.612C64.1406 175.312 64.0086 175.162 63.7446 175.162C63.4806 175.162 63.2466 175.294 63.0426 175.558C62.8386 175.822 62.6106 176.302 62.3586 176.998L62.1246 177.664H61.7826L62.2326 176.35C62.6646 175.114 63.3786 174.496 64.3746 174.496C64.7586 174.496 65.0286 174.592 65.1846 174.784C65.3526 174.964 65.4366 175.222 65.4366 175.558C65.4366 175.882 65.3526 176.368 65.1846 177.016L64.5546 179.482C65.3226 177.67 66.0546 176.386 66.7506 175.63C67.4586 174.874 68.2326 174.496 69.0726 174.496C70.0446 174.496 70.5306 174.946 70.5306 175.846C70.5306 176.242 70.4406 176.698 70.2606 177.214L68.5146 182.47C68.4186 182.758 68.3706 182.986 68.3706 183.154C68.3706 183.442 68.5146 183.586 68.8026 183.586C69.0426 183.586 69.2706 183.454 69.4866 183.19C69.7146 182.914 69.9486 182.434 70.1886 181.75L70.4226 181.084H70.7646ZM77.48 174.856C76.88 174.856 76.28 175.18 75.68 175.828C75.092 176.476 74.606 177.334 74.222 178.402C73.85 179.47 73.664 180.592 73.664 181.768C73.664 182.356 73.772 182.794 73.988 183.082C74.216 183.358 74.528 183.496 74.924 183.496C75.908 183.496 76.808 182.896 77.624 181.696L77.984 181.84C77.6 182.5 77.078 183.07 76.418 183.55C75.77 184.018 75.086 184.252 74.366 184.252C73.634 184.252 73.052 184.03 72.62 183.586C72.2 183.13 71.99 182.47 71.99 181.606C71.99 180.634 72.218 179.59 72.674 178.474C73.13 177.358 73.772 176.416 74.6 175.648C75.428 174.88 76.37 174.496 77.426 174.496C77.978 174.496 78.44 174.634 78.812 174.91C79.184 175.186 79.37 175.558 79.37 176.026C79.37 176.398 79.25 176.734 79.01 177.034C78.77 177.322 78.464 177.466 78.092 177.466C77.852 177.466 77.666 177.4 77.534 177.268C77.414 177.136 77.354 176.968 77.354 176.764C77.354 176.428 77.486 176.14 77.75 175.9C78.014 175.648 78.332 175.486 78.704 175.414C78.452 175.042 78.044 174.856 77.48 174.856ZM88.1835 181.084L87.7335 182.398C87.3015 183.634 86.5755 184.252 85.5555 184.252C84.7155 184.252 84.2955 183.88 84.2955 183.136C84.2955 182.776 84.3915 182.308 84.5835 181.732L86.2935 176.584C86.4135 176.248 86.4735 175.948 86.4735 175.684C86.4735 175.276 86.2815 175.072 85.8975 175.072C85.4535 175.072 84.9735 175.354 84.4575 175.918C83.9535 176.47 83.4435 177.25 82.9275 178.258C82.4115 179.266 81.9315 180.436 81.4875 181.768L80.8395 184H79.2735L82.8375 171.994C82.8975 171.79 82.9275 171.628 82.9275 171.508C82.9275 171.268 82.8315 171.094 82.6395 170.986C82.4475 170.866 82.1295 170.806 81.6855 170.806L81.7935 170.428C83.0415 170.416 84.1215 170.17 85.0335 169.69L82.4235 178.618C83.0715 177.154 83.7195 176.104 84.3675 175.468C85.0155 174.82 85.7235 174.496 86.4915 174.496C87.4635 174.496 87.9495 174.952 87.9495 175.864C87.9495 176.248 87.8595 176.698 87.6795 177.214L85.9335 182.47C85.8375 182.758 85.7895 182.986 85.7895 183.154C85.7895 183.442 85.9335 183.586 86.2215 183.586C86.4615 183.586 86.6895 183.454 86.9055 183.19C87.1335 182.914 87.3675 182.434 87.6075 181.75L87.8415 181.084H88.1835ZM101.613 173.758C101.937 173.758 102.189 173.848 102.369 174.028C102.561 174.208 102.657 174.478 102.657 174.838C102.657 175.15 102.579 175.39 102.423 175.558C102.267 175.726 102.081 175.81 101.865 175.81C101.637 175.81 101.433 175.732 101.253 175.576C101.085 175.42 101.001 175.192 101.001 174.892C101.001 174.676 101.055 174.424 101.163 174.136C100.695 174.34 100.353 174.592 100.137 174.892C100.641 175.24 100.893 175.78 100.893 176.512C100.893 177.04 100.761 177.556 100.497 178.06C100.245 178.564 99.8787 179.002 99.3987 179.374C98.9307 179.734 98.3847 179.974 97.7607 180.094L97.1667 180.418C96.6027 180.718 96.1887 180.958 95.9247 181.138C95.6727 181.318 95.5467 181.492 95.5467 181.66C95.5467 181.792 95.6307 181.906 95.7987 182.002C95.9667 182.098 96.2427 182.194 96.6267 182.29L97.9407 182.632C98.6247 182.812 99.1347 183.01 99.4707 183.226C99.8067 183.442 99.9747 183.766 99.9747 184.198C99.9747 184.654 99.7827 185.14 99.3987 185.656C99.0267 186.172 98.4447 186.61 97.6527 186.97C96.8727 187.33 95.9067 187.51 94.7547 187.51C93.8307 187.51 93.1287 187.39 92.6487 187.15C92.1567 186.91 91.9107 186.58 91.9107 186.16C91.9107 185.752 92.1327 185.338 92.5767 184.918C93.0207 184.51 93.6507 184.186 94.4667 183.946L94.5927 184.216C93.8127 184.624 93.4227 185.17 93.4227 185.854C93.4227 186.31 93.5787 186.646 93.8907 186.862C94.2147 187.09 94.6407 187.204 95.1687 187.204C95.6967 187.204 96.2427 187.096 96.8067 186.88C97.3707 186.664 97.8327 186.376 98.1927 186.016C98.5647 185.668 98.7507 185.302 98.7507 184.918C98.7507 184.75 98.7027 184.636 98.6067 184.576C98.5107 184.516 98.3127 184.45 98.0127 184.378L95.2587 183.676C94.6107 183.508 94.2867 183.148 94.2867 182.596C94.2867 182.224 94.4787 181.858 94.8627 181.498C95.2587 181.126 95.9967 180.682 97.0767 180.166H96.9507C96.2547 180.166 95.6907 180.004 95.2587 179.68C94.8267 179.344 94.6107 178.852 94.6107 178.204C94.6107 177.7 94.7427 177.16 95.0067 176.584C95.2707 176.008 95.6967 175.516 96.2847 175.108C96.8727 174.7 97.6167 174.496 98.5167 174.496C99.0327 174.496 99.4647 174.574 99.8127 174.73C100.041 174.442 100.317 174.208 100.641 174.028C100.965 173.848 101.289 173.758 101.613 173.758ZM97.1307 179.842C97.6827 179.842 98.1207 179.632 98.4447 179.212C98.7687 178.78 98.9907 178.282 99.1107 177.718C99.2307 177.154 99.2907 176.632 99.2907 176.152C99.2907 175.708 99.2307 175.378 99.1107 175.162C98.9907 174.934 98.7687 174.82 98.4447 174.82C97.8687 174.82 97.4067 175.078 97.0587 175.594C96.7227 176.098 96.4887 176.656 96.3567 177.268C96.2367 177.88 96.1767 178.378 96.1767 178.762C96.1767 179.482 96.4947 179.842 97.1307 179.842ZM102.103 181.426C102.103 180.478 102.313 179.464 102.733 178.384C103.153 177.292 103.759 176.374 104.551 175.63C105.343 174.874 106.261 174.496 107.305 174.496C108.073 174.496 108.673 174.736 109.105 175.216C109.549 175.684 109.771 176.386 109.771 177.322C109.771 178.27 109.561 179.29 109.141 180.382C108.721 181.462 108.115 182.38 107.323 183.136C106.531 183.88 105.613 184.252 104.569 184.252C103.801 184.252 103.195 184.018 102.751 183.55C102.319 183.07 102.103 182.362 102.103 181.426ZM107.197 174.856C106.585 174.856 106.003 175.246 105.451 176.026C104.911 176.806 104.473 177.784 104.137 178.96C103.813 180.124 103.651 181.246 103.651 182.326C103.651 182.866 103.735 183.262 103.903 183.514C104.071 183.766 104.329 183.892 104.677 183.892C105.289 183.892 105.865 183.502 106.405 182.722C106.957 181.942 107.395 180.97 107.719 179.806C108.055 178.63 108.223 177.502 108.223 176.422C108.223 175.882 108.139 175.486 107.971 175.234C107.803 174.982 107.545 174.856 107.197 174.856ZM119.496 181.084H119.838L119.388 182.398C118.956 183.634 118.23 184.252 117.21 184.252C117.018 184.252 116.838 184.21 116.67 184.126C116.502 184.042 116.376 183.922 116.292 183.766C116.22 183.598 116.184 183.412 116.184 183.208C116.184 182.896 116.268 182.404 116.436 181.732L116.994 179.482C116.298 181.198 115.62 182.422 114.96 183.154C114.3 183.886 113.58 184.252 112.8 184.252C111.792 184.252 111.288 183.79 111.288 182.866C111.288 182.482 111.372 182.038 111.54 181.534L113.286 176.278C113.382 175.99 113.43 175.768 113.43 175.612C113.43 175.312 113.286 175.162 112.998 175.162C112.758 175.162 112.524 175.3 112.296 175.576C112.08 175.84 111.852 176.314 111.612 176.998L111.378 177.664H111.036L111.486 176.35C111.918 175.114 112.644 174.496 113.664 174.496C114.504 174.496 114.924 174.868 114.924 175.612C114.924 175.972 114.828 176.44 114.636 177.016L112.926 182.164C112.806 182.524 112.746 182.824 112.746 183.064C112.746 183.472 112.938 183.676 113.322 183.676C113.79 183.676 114.306 183.334 114.87 182.65C115.434 181.954 115.992 180.994 116.544 179.77C117.096 178.546 117.576 177.166 117.984 175.63L118.2 174.748C118.884 174.724 119.43 174.64 119.838 174.496L117.606 182.47C117.522 182.782 117.48 183.016 117.48 183.172C117.48 183.448 117.606 183.586 117.858 183.586C118.122 183.586 118.362 183.448 118.578 183.172C118.806 182.884 119.034 182.41 119.262 181.75L119.496 181.084ZM127.837 174.496C128.161 174.496 128.419 174.592 128.611 174.784C128.803 174.976 128.899 175.222 128.899 175.522C128.899 175.882 128.773 176.188 128.521 176.44C128.269 176.692 127.975 176.818 127.639 176.818C127.423 176.818 127.249 176.764 127.117 176.656C126.985 176.536 126.919 176.374 126.919 176.17C126.919 175.894 126.991 175.66 127.135 175.468C127.279 175.276 127.477 175.126 127.729 175.018C127.681 174.97 127.615 174.946 127.531 174.946C126.883 174.946 126.175 175.648 125.407 177.052C124.651 178.444 123.937 180.286 123.265 182.578L122.905 184H121.339L123.499 176.278C123.583 176.014 123.625 175.78 123.625 175.576C123.625 175.3 123.499 175.162 123.247 175.162C122.983 175.162 122.737 175.306 122.509 175.594C122.293 175.87 122.071 176.338 121.843 176.998L121.609 177.664H121.267L121.717 176.35C122.149 175.114 122.875 174.496 123.895 174.496C124.579 174.496 124.921 174.844 124.921 175.54C124.921 175.876 124.837 176.368 124.669 177.016L124.093 179.284C124.741 177.544 125.347 176.314 125.911 175.594C126.487 174.862 127.129 174.496 127.837 174.496ZM142.053 181.084L141.603 182.398C141.171 183.634 140.445 184.252 139.425 184.252C138.885 184.252 138.513 184.09 138.309 183.766C138.201 183.586 138.147 183.376 138.147 183.136C138.147 182.812 138.249 182.344 138.453 181.732L140.163 176.584C140.283 176.224 140.343 175.906 140.343 175.63C140.343 175.258 140.211 175.072 139.947 175.072C139.263 175.072 138.489 175.858 137.625 177.43C136.773 178.99 135.945 181.06 135.141 183.64L135.159 183.532L135.033 184H133.413L135.663 176.584C135.783 176.224 135.843 175.918 135.843 175.666C135.843 175.27 135.675 175.072 135.339 175.072C134.895 175.072 134.397 175.426 133.845 176.134C133.293 176.83 132.747 177.784 132.207 178.996C131.679 180.208 131.217 181.546 130.821 183.01L130.569 184H129.003L131.163 176.278C131.247 175.942 131.289 175.72 131.289 175.612C131.289 175.312 131.163 175.162 130.911 175.162C130.647 175.162 130.401 175.306 130.173 175.594C129.957 175.87 129.735 176.338 129.507 176.998L129.273 177.664H128.931L129.381 176.35C129.813 175.114 130.539 174.496 131.559 174.496C132.255 174.496 132.603 174.856 132.603 175.576C132.603 175.888 132.513 176.368 132.333 177.016L131.757 179.302C132.477 177.55 133.155 176.314 133.791 175.594C134.427 174.862 135.141 174.496 135.933 174.496C136.725 174.496 137.121 174.916 137.121 175.756C137.121 176.128 137.037 176.614 136.869 177.214L136.221 179.626C136.725 178.366 137.199 177.37 137.643 176.638C138.087 175.894 138.537 175.354 138.993 175.018C139.461 174.67 139.977 174.496 140.541 174.496C141.381 174.496 141.801 174.946 141.801 175.846C141.801 176.23 141.717 176.686 141.549 177.214L139.803 182.47C139.707 182.782 139.659 183.01 139.659 183.154C139.659 183.442 139.803 183.586 140.091 183.586C140.331 183.586 140.559 183.454 140.775 183.19C141.003 182.914 141.237 182.434 141.477 181.75L141.711 181.084H142.053ZM150.433 175.684C150.433 176.656 149.887 177.508 148.795 178.24C147.703 178.972 146.455 179.566 145.051 180.022C144.919 180.622 144.853 181.204 144.853 181.768C144.853 182.92 145.267 183.496 146.095 183.496C147.127 183.496 148.051 182.896 148.867 181.696L149.155 181.84C148.771 182.5 148.249 183.07 147.589 183.55C146.941 184.018 146.257 184.252 145.537 184.252C144.793 184.252 144.211 184.036 143.791 183.604C143.371 183.172 143.161 182.542 143.161 181.714C143.161 180.802 143.425 179.776 143.953 178.636C144.493 177.484 145.219 176.506 146.131 175.702C147.043 174.898 148.033 174.496 149.101 174.496C149.485 174.496 149.803 174.598 150.055 174.802C150.307 175.006 150.433 175.3 150.433 175.684ZM148.705 174.838C148.321 174.838 147.889 175.066 147.409 175.522C146.941 175.966 146.497 176.56 146.077 177.304C145.669 178.048 145.357 178.84 145.141 179.68C146.281 179.284 147.097 178.9 147.589 178.528C148.033 178.18 148.375 177.76 148.615 177.268C148.867 176.764 148.993 176.224 148.993 175.648C148.993 175.324 148.969 175.108 148.921 175C148.873 174.892 148.801 174.838 148.705 174.838ZM152.84 182.47C152.804 182.614 152.786 182.746 152.786 182.866C152.786 183.106 152.858 183.286 153.002 183.406C153.146 183.526 153.332 183.586 153.56 183.586C153.86 183.586 154.136 183.46 154.388 183.208C154.652 182.944 154.91 182.47 155.162 181.786L155.414 181.084H155.756L155.378 182.218C155.126 182.962 154.796 183.49 154.388 183.802C153.992 184.102 153.5 184.252 152.912 184.252C152.372 184.252 151.97 184.12 151.706 183.856C151.442 183.592 151.31 183.226 151.31 182.758C151.31 182.446 151.364 182.104 151.472 181.732L153.38 175.108H151.76L151.85 174.748H153.47L154.262 172.012C154.91 171.988 155.45 171.904 155.882 171.76L155.036 174.748H157.412L157.358 175.108H154.928L152.84 182.47Z" fill="#4C4845"/>
<path d="M24.0762 132.31L24.7529 132.453L22.374 140H0.84082V139.241H1.88672C3.0625 139.241 3.90332 138.858 4.40918 138.093C4.69629 137.655 4.83984 136.644 4.83984 135.058V117.113C4.83984 115.377 4.64844 114.29 4.26562 113.853C3.73242 113.251 2.93945 112.95 1.88672 112.95H0.84082V112.191H13.4326V112.95C11.9561 112.937 10.917 113.073 10.3154 113.36C9.72754 113.647 9.32422 114.01 9.10547 114.447C8.88672 114.885 8.77734 115.931 8.77734 117.585V135.058C8.77734 136.192 8.88672 136.972 9.10547 137.396C9.26953 137.683 9.52246 137.895 9.86426 138.031C10.2061 138.168 11.2725 138.236 13.0635 138.236H15.0938C17.2266 138.236 18.7236 138.079 19.585 137.765C20.4463 137.45 21.2324 136.896 21.9434 136.104C22.6543 135.297 23.3652 134.032 24.0762 132.31ZM44.8916 130.689H34.125L32.2383 135.078C31.7734 136.158 31.541 136.965 31.541 137.498C31.541 137.922 31.7393 138.298 32.1357 138.626C32.5459 138.94 33.4209 139.146 34.7607 139.241V140H26.0039V139.241C27.166 139.036 27.918 138.77 28.2598 138.441C28.957 137.785 29.7295 136.452 30.5771 134.442L40.3594 111.556H41.0771L50.7568 134.688C51.5361 136.548 52.2402 137.758 52.8691 138.318C53.5117 138.865 54.4004 139.173 55.5352 139.241V140H44.5635V139.241C45.6709 139.187 46.416 139.002 46.7988 138.688C47.1953 138.373 47.3936 137.99 47.3936 137.539C47.3936 136.938 47.1201 135.987 46.5732 134.688L44.8916 130.689ZM44.3174 129.172L39.6006 117.934L34.7607 129.172H44.3174ZM72.8027 126.978V135.078C72.8027 136.828 72.9941 137.915 73.377 138.339C73.8965 138.94 74.6826 139.241 75.7354 139.241H76.8018V140H64.8867V139.241H65.9326C67.1084 139.241 67.9492 138.858 68.4551 138.093C68.7285 137.669 68.8652 136.664 68.8652 135.078V117.113C68.8652 115.363 68.6807 114.276 68.3115 113.853C67.7783 113.251 66.9854 112.95 65.9326 112.95H64.8867V112.191H75.0791C77.5674 112.191 79.5293 112.451 80.9648 112.971C82.4004 113.477 83.6104 114.338 84.5947 115.555C85.5791 116.771 86.0713 118.214 86.0713 119.882C86.0713 122.151 85.3193 123.997 83.8154 125.419C82.3252 126.841 80.2129 127.552 77.4785 127.552C76.8086 127.552 76.084 127.504 75.3047 127.408C74.5254 127.312 73.6914 127.169 72.8027 126.978ZM72.8027 125.809C73.5273 125.945 74.1699 126.048 74.7305 126.116C75.291 126.185 75.7695 126.219 76.166 126.219C77.5879 126.219 78.8115 125.672 79.8369 124.578C80.876 123.471 81.3955 122.042 81.3955 120.292C81.3955 119.089 81.1494 117.975 80.6572 116.949C80.165 115.91 79.4678 115.138 78.5654 114.632C77.6631 114.112 76.6377 113.853 75.4893 113.853C74.792 113.853 73.8965 113.982 72.8027 114.242V125.809ZM96.3457 113.709V124.701H102.457C104.043 124.701 105.103 124.462 105.636 123.983C106.347 123.354 106.743 122.247 106.825 120.661H107.584V130.341H106.825C106.634 128.987 106.442 128.119 106.251 127.736C106.005 127.258 105.602 126.882 105.041 126.608C104.48 126.335 103.619 126.198 102.457 126.198H96.3457V135.365C96.3457 136.596 96.4004 137.348 96.5098 137.621C96.6191 137.881 96.8105 138.093 97.084 138.257C97.3574 138.407 97.877 138.482 98.6426 138.482H103.359C104.932 138.482 106.073 138.373 106.784 138.154C107.495 137.936 108.179 137.505 108.835 136.862C109.683 136.015 110.551 134.736 111.439 133.027H112.26L109.86 140H88.4297V139.241H89.4141C90.0703 139.241 90.6924 139.084 91.2803 138.77C91.7178 138.551 92.0117 138.223 92.1621 137.785C92.3262 137.348 92.4082 136.452 92.4082 135.099V117.031C92.4082 115.268 92.2305 114.181 91.875 113.771C91.3828 113.224 90.5625 112.95 89.4141 112.95H88.4297V112.191H109.86L110.168 118.282H109.368C109.081 116.819 108.76 115.814 108.404 115.268C108.062 114.721 107.55 114.304 106.866 114.017C106.319 113.812 105.355 113.709 103.975 113.709H96.3457ZM141.627 140H134.203L124.79 126.998C124.093 127.025 123.525 127.039 123.088 127.039C122.91 127.039 122.719 127.039 122.514 127.039C122.309 127.025 122.097 127.012 121.878 126.998V135.078C121.878 136.828 122.069 137.915 122.452 138.339C122.972 138.94 123.751 139.241 124.79 139.241H125.877V140H113.962V139.241H115.008C116.184 139.241 117.024 138.858 117.53 138.093C117.817 137.669 117.961 136.664 117.961 135.078V117.113C117.961 115.363 117.77 114.276 117.387 113.853C116.854 113.251 116.061 112.95 115.008 112.95H113.962V112.191H124.093C127.046 112.191 129.22 112.41 130.614 112.848C132.022 113.271 133.212 114.064 134.183 115.227C135.167 116.375 135.659 117.749 135.659 119.349C135.659 121.058 135.099 122.541 133.978 123.799C132.87 125.057 131.147 125.945 128.81 126.465L134.552 134.442C135.864 136.274 136.992 137.491 137.936 138.093C138.879 138.694 140.109 139.077 141.627 139.241V140ZM121.878 125.706C122.138 125.706 122.363 125.713 122.555 125.727C122.746 125.727 122.903 125.727 123.026 125.727C125.679 125.727 127.675 125.152 129.015 124.004C130.368 122.855 131.045 121.393 131.045 119.615C131.045 117.879 130.498 116.471 129.404 115.391C128.324 114.297 126.889 113.75 125.098 113.75C124.305 113.75 123.231 113.88 121.878 114.14V125.706ZM165.334 132.31L166.011 132.453L163.632 140H142.099V139.241H143.145C144.32 139.241 145.161 138.858 145.667 138.093C145.954 137.655 146.098 136.644 146.098 135.058V117.113C146.098 115.377 145.906 114.29 145.523 113.853C144.99 113.251 144.197 112.95 143.145 112.95H142.099V112.191H154.69V112.95C153.214 112.937 152.175 113.073 151.573 113.36C150.985 113.647 150.582 114.01 150.363 114.447C150.145 114.885 150.035 115.931 150.035 117.585V135.058C150.035 136.192 150.145 136.972 150.363 137.396C150.527 137.683 150.78 137.895 151.122 138.031C151.464 138.168 152.53 138.236 154.321 138.236H156.352C158.484 138.236 159.981 138.079 160.843 137.765C161.704 137.45 162.49 136.896 163.201 136.104C163.912 135.297 164.623 134.032 165.334 132.31ZM175.711 113.709V124.701H181.822C183.408 124.701 184.468 124.462 185.001 123.983C185.712 123.354 186.108 122.247 186.19 120.661H186.949V130.341H186.19C185.999 128.987 185.808 128.119 185.616 127.736C185.37 127.258 184.967 126.882 184.406 126.608C183.846 126.335 182.984 126.198 181.822 126.198H175.711V135.365C175.711 136.596 175.766 137.348 175.875 137.621C175.984 137.881 176.176 138.093 176.449 138.257C176.723 138.407 177.242 138.482 178.008 138.482H182.725C184.297 138.482 185.438 138.373 186.149 138.154C186.86 137.936 187.544 137.505 188.2 136.862C189.048 136.015 189.916 134.736 190.805 133.027H191.625L189.226 140H167.795V139.241H168.779C169.436 139.241 170.058 139.084 170.646 138.77C171.083 138.551 171.377 138.223 171.527 137.785C171.691 137.348 171.773 136.452 171.773 135.099V117.031C171.773 115.268 171.596 114.181 171.24 113.771C170.748 113.224 169.928 112.95 168.779 112.95H167.795V112.191H189.226L189.533 118.282H188.733C188.446 116.819 188.125 115.814 187.77 115.268C187.428 114.721 186.915 114.304 186.231 114.017C185.685 113.812 184.721 113.709 183.34 113.709H175.711Z" fill="#B38934"/>
<rect x="72" y="1" width="48" height="88" rx="24" stroke="#B38934" stroke-width="2"/>
<path d="M72 67C74.0741 64.101 80.9724 59.8549 90.3008 59.8549M90.3008 59.8549C94 59.8549 98.4917 60.9067 101.5 61.5M90.3008 59.8549L96.2222 51.5M120.222 59.8549C113 64 109.629 63.1032 101.5 61.5M75.5 76C77.9445 73.3984 87.1556 68.5376 96.2222 70.5M96.2222 70.5C107.556 72.953 115.5 73.622 119.5 70.5M96.2222 70.5L72 26.9547M96.2222 70.5L101.5 61.5M120.222 26.9547L101.5 61.5M101.5 61.5L96.2222 51.5M96.2222 51.5V1" stroke="#B38934" stroke-width="2"/>
</svg>
